<svg version="1.2" xmlns="http://www.w3.org/2000/svg" viewBox="0 0 124 46" width="124" height="46">
	<title>medialab-svg</title>
	<style>
		.s0 { fill: #ffffff } 
	</style>
	<g id="Layer">
		<g id="Layer">
			<path id="Layer" class="s0" d="m18.7 38.2l0.9-0.2v0.4q0 0.5-0.3 0.8-0.3 0.3-0.8 0.3-0.3 0-0.5-0.1-0.2-0.2-0.2-0.5 0-0.4 0.2-0.5 0.2-0.2 0.7-0.2z"/>
			<path id="Layer" class="s0" d="m31.2 36.9q0.3 0.4 0.3 1 0 0.8-0.3 1.2-0.4 0.5-0.9 0.4-0.5 0-0.8-0.3-0.3-0.3-0.3-0.8v-0.5q0-0.6 0.3-1 0.3-0.4 0.9-0.4 0.5 0 0.8 0.4z"/>
			<path id="Layer" fill-rule="evenodd" class="s0" d="m40.6 9.6v27.7c0 4.8-3.9 8.7-8.6 8.7h-23.4c-4.8 0-8.7-3.9-8.7-8.7v-27.8c0-4.7 3.9-8.6 8.7-8.6h23.3c4.8 0 8.7 3.9 8.7 8.7zm-31.6 24.7h-0.6v5.7h0.6zm11.2 5.7v-2.5q0-1.4-1.4-1.4-0.7 0-1.3 0.3v0.6q0.6-0.4 1.3-0.4 0.8 0 0.8 1l-1.2 0.1q-1.2 0.2-1.2 1.3 0 0.5 0.3 0.8 0.3 0.3 0.9 0.3 0.8 0 1.2-0.7v0.6zm2-9.7l6.6-19.6q0 1.4 0 3.7 0 2.3 0 2.5v12.9c0 0.9 0.7 1.6 1.6 1.6 0.9 0 1.6-0.7 1.6-1.6v-21.4c0-0.9-0.7-1.6-1.6-1.6h-2c-0.7 0-1.3 0.4-1.5 1.1l-6.6 19.7h-0.1l-6.7-19.7c-0.2-0.7-0.8-1.1-1.5-1.1h-2c-0.9 0-1.6 0.7-1.6 1.6v21.4c0 0.9 0.7 1.6 1.6 1.6 0.9 0 1.6-0.7 1.6-1.6v-12.9q0-0.2 0-2.5 0-2.3 0-3.6l6.6 19.5c0.2 0.7 0.8 1.1 1.5 1.1h1c0.7 0 1.3-0.4 1.5-1.1zm9.9 7.7q0-0.9-0.4-1.4-0.4-0.6-1.2-0.6-0.9 0-1.3 0.8v-2.5h-0.7v5.7h0.7v-0.6q0.4 0.7 1.1 0.7 0.9 0 1.3-0.6 0.5-0.6 0.5-1.5z"/>
		</g>
		<g id="Layer">
			<g id="Layer">
				<path id="Layer" fill-rule="evenodd" class="s0" d="m61 26.8h3.8q-0.2 1.2-1.2 3.1-1 1.8-2.8 3.1-2.3 1.5-6.2 1.5-3.1 0-5.4-1.4-2.3-1.5-3.5-4.1-1.2-2.5-1.2-5.8 0-3.6 1.2-6.5 1.2-2.8 3.6-4.5 2.4-1.6 6-1.6 3.2 0 5.4 1.6 2.2 1.6 3.3 4.6 1.1 3 1.1 7h-16.5q0 3.6 1.6 5.5 1.7 1.9 4.9 1.9 1.7 0 3-0.7 1.3-0.7 2.1-1.8 0.7-1 0.8-1.9zm-12.4-6h12.6q-0.5-6.8-6.4-6.8-1.7 0-3.1 1-1.5 0.9-2.3 2.5-0.8 1.5-0.8 3.3z"/>
				<path id="Layer" fill-rule="evenodd" class="s0" d="m88.4 2.8v31.1h-3.6v-3.1h-0.1q-2 3.7-6.4 3.7-3.6 0-5.8-1.9-2.3-1.9-3.2-4.8-1-2.8-1-5.9 0-3.2 1.1-5.8 1.2-2.5 3.3-4 2.1-1.5 5-1.5 2.7 0 4.2 1.1 1.5 1.1 2.6 2.8l0.1-0.4v-11.3zm-16.2 19.7q0 3.9 1.6 6.3 1.6 2.4 4.5 2.4 2.4 0 4.3-1.7 1.9-1.8 1.9-5.9 0-9.6-6.1-9.6-3.8 0-5 2.6-1.2 2.5-1.2 5.9z"/>
				<path id="Layer" class="s0" d="m93.8 2.8h3.8v4h-3.8z"/>
				<path id="Layer" class="s0" d="m93.8 11.3l3.8-0.1v22.7h-3.8z"/>
				<path id="Layer" fill-rule="evenodd" class="s0" d="m106.7 18.1h-3.6q0.2-3.9 2.6-5.7 2.4-1.8 6.8-1.8 1.4 0 3.4 0.4 1.9 0.5 3.4 1.9 1.6 1.4 1.6 4v13q0 1.4 1.2 1.4 0.4 0 1.3-0.2v2.8q-0.4 0.1-0.7 0.2-0.3 0.1-0.6 0.1-0.4 0.1-0.8 0.1-2.3 0-3.1-0.9-0.8-0.9-0.9-2.6-1.5 1.6-3.4 2.7-1.8 1-4.8 1-2 0-3.7-0.8-1.6-0.8-2.5-2.3-0.9-1.5-0.9-3.4 0-2.3 1.4-4.5 1.4-2.1 5.5-2.6l6.3-0.8q1.9-0.2 2-2.7 0-3.7-5.4-3.7-2.8 0-3.8 1.3-1.1 1.3-1.3 3.1zm10.4 7.9v-3.7q-0.5 0.4-1.8 0.7-1.2 0.3-4.5 0.8-1.3 0.1-2.3 0.5-1 0.3-1.8 1.1-0.7 0.7-0.7 2 0 4 4.1 4 1.7 0 3.4-0.7 1.6-0.7 2.6-2 1-1.2 1-2.7z"/>
			</g>
			<g id="Layer">
				<path id="Layer" class="s0" d="m46.1 43.8v-0.9q0.6 0.5 1.4 0.5 1 0 1-0.7 0-0.2-0.1-0.3-0.1-0.2-0.2-0.3-0.2-0.1-0.4-0.1-0.2-0.1-0.4-0.2-0.3-0.1-0.6-0.3-0.2-0.1-0.4-0.3-0.1-0.1-0.2-0.3-0.1-0.2-0.1-0.5 0-0.4 0.2-0.6 0.1-0.3 0.4-0.5 0.2-0.1 0.6-0.2 0.3-0.1 0.7-0.1 0.6 0 1.1 0.2v0.8q-0.5-0.4-1.2-0.4-0.3 0-0.4 0.1-0.2 0-0.3 0.1-0.2 0.1-0.2 0.2-0.1 0.2-0.1 0.3 0 0.2 0.1 0.3 0 0.2 0.2 0.3 0.1 0.1 0.3 0.1 0.2 0.1 0.4 0.2 0.3 0.2 0.6 0.3 0.3 0.1 0.5 0.3 0.1 0.1 0.2 0.3 0.1 0.3 0.1 0.6 0 0.3-0.1 0.6-0.2 0.3-0.5 0.4-0.2 0.2-0.6 0.3-0.3 0.1-0.7 0.1-0.8-0.1-1.3-0.3z"/>
				<path id="Layer" class="s0" d="m63.2 43.9q-0.3 0.1-0.8 0.1-1.2 0-1.2-1.4v-2.9h-0.9v-0.6h0.9v-1.2l0.8-0.3-0.1 1.5h1.3v0.6h-1.3v2.8q0.1 0.5 0.2 0.7 0.2 0.2 0.6 0.2 0.3 0 0.5-0.2v0.7z"/>
				<path id="Layer" class="s0" d="m78.5 43.9h-0.8v-0.8 0.1q-0.5 0.8-1.5 0.8-1.7 0-1.7-2v-2.9h0.8v2.7q0 1.6 1.1 1.6 0.6 0 1-0.4 0.3-0.5 0.3-1.1v-2.8h0.8z"/>
				<path id="Layer" fill-rule="evenodd" class="s0" d="m94.6 43.9h-0.8v-0.8q-0.5 0.9-1.6 0.9-1 0-1.5-0.6-0.6-0.7-0.6-1.8 0-1.2 0.7-1.9 0.6-0.7 1.6-0.7 1 0 1.4 0.8v-3h0.8zm-0.7-2.2v-0.8q0-0.5-0.4-0.9-0.4-0.4-1-0.5-0.7 0-1.1 0.6-0.5 0.5-0.5 1.4 0 0.9 0.4 1.3 0.4 0.5 1.1 0.5 0.6 0 1-0.4 0.5-0.5 0.5-1.2z"/>
				<path id="Layer" class="s0" d="m107 37.8q-0.2 0-0.4-0.1-0.1-0.1-0.1-0.4 0-0.2 0.1-0.3 0.2-0.2 0.4-0.2 0.2 0 0.3 0.2 0.2 0.1 0.2 0.3 0 0.3-0.2 0.4-0.1 0.1-0.3 0.1zm0.4 6.1h-0.8v-4.8h0.8z"/>
				<path id="Layer" fill-rule="evenodd" class="s0" d="m121.4 44q-1.1 0-1.8-0.6-0.6-0.7-0.6-1.8 0-1.3 0.7-1.9 0.7-0.7 1.8-0.7 1.1 0 1.7 0.6 0.6 0.7 0.6 1.9 0 1.1-0.7 1.8-0.6 0.7-1.7 0.7zm0-4.4q-0.7 0-1.2 0.5-0.4 0.5-0.4 1.4 0 0.9 0.4 1.4 0.5 0.5 1.2 0.5 0.8 0 1.2-0.5 0.4-0.5 0.4-1.4 0-0.9-0.4-1.4-0.4-0.5-1.2-0.5z"/>
			</g>
		</g>
	</g>
</svg>